<svg width="200" height="200" viewBox="0 0 200 200" fill="none" xmlns="http://www.w3.org/2000/svg">
<path d="M32.9088 123.16C30.3488 120.733 28.3221 117.533 26.8288 113.56C25.3621 109.587 24.6288 105.293 24.6288 100.68C24.6288 96.0667 25.3621 91.7733 26.8288 87.8C28.3221 83.8267 30.3488 80.6267 32.9088 78.2H41.4688V79.04C38.8821 81.76 36.8421 85.04 35.3488 88.88C33.8554 92.6933 33.1088 96.6267 33.1088 100.68C33.1088 104.76 33.8554 108.72 35.3488 112.56C36.8421 116.373 38.8821 119.64 41.4688 122.36V123.16H32.9088ZM58.5013 107.36C57.2746 107.36 56.1413 107.067 55.1013 106.48C54.0879 105.893 53.2746 105.093 52.6613 104.08C52.0746 103.04 51.7813 101.907 51.7813 100.68C51.7813 99.4267 52.0746 98.2933 52.6613 97.28C53.2746 96.24 54.0879 95.4267 55.1013 94.84C56.1413 94.2267 57.2746 93.92 58.5013 93.92C59.7546 93.92 60.8879 94.2267 61.9013 94.84C62.9413 95.4267 63.7546 96.24 64.3413 97.28C64.9279 98.2933 65.2213 99.4267 65.2213 100.68C65.2213 101.907 64.9279 103.04 64.3413 104.08C63.7546 105.093 62.9413 105.893 61.9013 106.48C60.8879 107.067 59.7546 107.36 58.5013 107.36ZM80.2266 114.4C78.2799 114.4 76.6532 113.933 75.3466 113C74.0399 112.067 73.0532 110.773 72.3866 109.12C71.7466 107.44 71.4266 105.533 71.4266 103.4C71.4266 100.733 71.7866 98.4667 72.5066 96.6C73.2532 94.7333 74.1599 93.2533 75.2266 92.16H80.5466C79.8799 92.88 79.2666 93.7733 78.7066 94.84C78.1732 95.9067 77.7332 97.1467 77.3866 98.56C77.0666 99.9467 76.9066 101.493 76.9066 103.2C76.9066 105.147 77.1999 106.733 77.7866 107.96C78.3999 109.16 79.3732 109.76 80.7066 109.76C81.5066 109.76 82.1332 109.573 82.5866 109.2C83.0399 108.8 83.3599 108.24 83.5466 107.52C83.7332 106.8 83.8266 105.92 83.8266 104.88V99.12H89.3066V104.88C89.3066 105.92 89.3999 106.8 89.5866 107.52C89.7732 108.24 90.0932 108.8 90.5466 109.2C90.9999 109.573 91.6266 109.76 92.4266 109.76C93.3332 109.76 94.0532 109.493 94.5866 108.96C95.1466 108.4 95.5599 107.627 95.8266 106.64C96.0932 105.653 96.2266 104.533 96.2266 103.28C96.2266 101.627 96.0799 100.12 95.7866 98.76C95.4932 97.3733 95.0799 96.1333 94.5466 95.04C94.0132 93.92 93.3599 92.96 92.5866 92.16H97.9066C98.7066 92.9867 99.3866 93.9467 99.9466 95.04C100.533 96.1333 100.973 97.3733 101.267 98.76C101.56 100.12 101.707 101.667 101.707 103.4C101.707 105.533 101.373 107.44 100.707 109.12C100.067 110.773 99.0932 112.067 97.7866 113C96.4799 113.933 94.8532 114.4 92.9066 114.4C91.1999 114.4 89.8532 114.013 88.8666 113.24C87.9066 112.467 87.1732 111.347 86.6666 109.88H86.4666C86.1466 110.84 85.7066 111.667 85.1466 112.36C84.6132 113.027 83.9466 113.533 83.1466 113.88C82.3466 114.227 81.3732 114.4 80.2266 114.4ZM114.634 107.36C113.407 107.36 112.274 107.067 111.234 106.48C110.221 105.893 109.407 105.093 108.794 104.08C108.207 103.04 107.914 101.907 107.914 100.68C107.914 99.4267 108.207 98.2933 108.794 97.28C109.407 96.24 110.221 95.4267 111.234 94.84C112.274 94.2267 113.407 93.92 114.634 93.92C115.887 93.92 117.021 94.2267 118.034 94.84C119.074 95.4267 119.887 96.24 120.474 97.28C121.061 98.2933 121.354 99.4267 121.354 100.68C121.354 101.907 121.061 103.04 120.474 104.08C119.887 105.093 119.074 105.893 118.034 106.48C117.021 107.067 115.887 107.36 114.634 107.36ZM134.956 114V97.12C134.956 95.2267 135.476 93.8267 136.516 92.92C137.556 92.0133 138.943 91.56 140.676 91.56C141.823 91.56 142.796 91.7733 143.596 92.2C144.396 92.6 144.93 93.2267 145.196 94.08H145.396C145.69 93.2267 146.236 92.6 147.036 92.2C147.836 91.7733 148.81 91.56 149.956 91.56C151.69 91.56 153.076 92.0133 154.116 92.92C155.156 93.8267 155.676 95.2267 155.676 97.12V114H149.716V98.64C149.716 97.7867 149.556 97.2 149.236 96.88C148.943 96.56 148.57 96.4 148.116 96.4C147.61 96.4 147.21 96.56 146.916 96.88C146.65 97.2 146.49 97.7067 146.436 98.4H144.116C144.063 97.7067 143.89 97.2 143.596 96.88C143.33 96.56 142.943 96.4 142.436 96.4C141.983 96.4 141.596 96.56 141.276 96.88C140.983 97.2 140.836 97.7867 140.836 98.64V104.4L140.956 104.44C141.49 103.4 142.116 102.72 142.836 102.4C143.556 102.053 144.61 101.88 145.996 101.88H146.956V106.36H145.996C144.583 106.36 143.503 106.587 142.756 107.04C142.01 107.493 141.503 108.093 141.236 108.84C140.996 109.56 140.876 110.373 140.876 111.28V114H134.956ZM158.004 123.16V122.36C160.591 119.64 162.631 116.373 164.124 112.56C165.618 108.72 166.364 104.76 166.364 100.68C166.364 96.6267 165.618 92.6933 164.124 88.88C162.631 85.04 160.591 81.76 158.004 79.04V78.2H166.564C169.124 80.6267 171.138 83.8267 172.604 87.8C174.098 91.7733 174.844 96.0667 174.844 100.68C174.844 105.293 174.098 109.587 172.604 113.56C171.138 117.533 169.124 120.733 166.564 123.16H158.004Z" fill="#1D1D1D"/>
</svg>
